<svg xmlns="http://www.w3.org/2000/svg" viewBox="0 0 180 180" fill="none">
  <rect width="180" height="180" rx="40" fill="#f97316"/>
  <path
    d="M102.4 43.9a5.6 5.6 0 0 0-7.9 0l-6.2 6.2a5.6 5.6 0 0 0 0 7.9l3.9 3.9-14.6 14.6a25.3 25.3 0 0 0-30.9 38.8l-27 27a9 9 0 0 0 12.7 12.7l27-27a25.3 25.3 0 0 0 38.8-30.9l14.6-14.6 3.9 3.9a5.6 5.6 0 0 0 7.9 0l6.2-6.2a5.6 5.6 0 0 0 0-7.9l-14.6-14.6a5.6 5.6 0 0 0-7.9 0l-3.9 3.9-6.2-6.2a5.6 5.6 0 0 0-7.9 0l-6.2 6.2a5.6 5.6 0 0 0 0 7.9l3.9 3.9-6.2 6.2Z"
    fill="#ffffff"
  />
</svg>
